<svg class="hidden" xmlns="http://www.w3.org/2000/svg">
		<symbol  viewBox="0 0 24 25" id="facebook">
			<path d="M24 12.5733C24 5.90541 18.6274 0.5 12 0.5C5.37258 0.5 0 5.90541 0 12.5733C0 18.5995 4.38823 23.5943 10.125 24.5V16.0633H7.07813V12.5733H10.125V9.91343C10.125 6.88755 11.9165 5.21615 14.6576 5.21615C15.9705 5.21615 17.3438 5.45195 17.3438 5.45195V8.42313H15.8306C14.3399 8.42313 13.875 9.35379 13.875 10.3086V12.5733H17.2031L16.6711 16.0633H13.875V24.5C19.6118 23.5943 24 18.5995 24 12.5733Z"/>
		</symbol>

		<symbol  width="92" height="92" viewBox="0 0 92 92" id="box">
		<rect width="92" height="92" rx="24" fill="white"/>
        <path d="M37.7339 42.125C38.8379 42.125 39.7339 41.229 39.7339 40.125V32.325C39.7339 28.838 42.5709 26 46.0579 26C49.5449 26 52.3829 28.838 52.3829 32.325V40.125C52.3829 41.229 53.2779 42.125 54.3829 42.125C55.4869 42.125 56.3829 41.229 56.3829 40.125V32.325C56.3839 26.632 51.7519 22 46.0579 22C40.3659 22 35.7339 26.632 35.7339 32.325V40.125C35.7339 41.229 36.6299 42.125 37.7339 42.125Z" fill="url(#paint0_linear_22728_12612)"/>
        <path d="M69 37.6309H58.384V40.1249C58.384 42.3309 56.59 44.1249 54.384 44.1249C52.178 44.1249 50.384 42.3309 50.384 40.1249V37.6309H41.735V40.1249C41.735 42.3309 39.941 44.1249 37.735 44.1249C35.529 44.1249 33.735 42.3309 33.735 40.1249V37.6309H23C22.448 37.6309 22.107 38.0659 22.238 38.6019L29.236 67.0989C29.658 68.7009 31.344 69.9999 33 69.9999H59C60.658 69.9999 62.342 68.7009 62.766 67.0989L69.762 38.6019C69.893 38.0649 69.553 37.6309 69 37.6309Z" fill="url(#paint1_linear_22728_12612)"/>
        <path d="M42.6001 48.4C42.6001 47.6265 43.2266 47 44.0001 47C44.7736 47 45.4001 47.6265 45.4001 48.4V55.35L45.4001 54C45.4001 53.2265 46.0266 52.6 46.8001 52.6C47.5736 52.6 48.2001 53.2265 48.2001 54V55.6764C48.2127 54.9141 48.8346 53.3 49.6 53.3C50.3731 53.3 50.9999 53.9268 51 54.7C51 54.7 51.0411 55.7411 51.1332 55.8033C51.3572 55.3285 51.8402 54 52.4 54C53.1732 54 53.8 54.6268 53.8 55.4V62.4C53.8 63.9463 52.5463 65.2 51 65.2H46.3198C44.8344 65.2 43.4099 64.6099 42.3599 63.5599L40.15 61.35L37 59.9402C37.0051 58.6033 38.0526 58.2 39.1 58.2C40.0023 58.2 40.8136 58.3407 42.6 59.25L42.6001 48.4Z" fill="white"/>
        <defs>
        <linearGradient id="paint0_linear_22728_12612" x1="46.0584" y1="22" x2="46.0584" y2="42.125" gradientUnits="userSpaceOnUse">
        <stop stop-color="#EF8080"/>
        <stop offset="1" stop-color="#F0145A"/>
        </linearGradient>
        <linearGradient id="paint1_linear_22728_12612" x1="46" y1="37.6309" x2="46" y2="69.9999" gradientUnits="userSpaceOnUse">
        <stop stop-color="#EF8080"/>
        <stop offset="1" stop-color="#F0145A"/>
        </linearGradient>
        </defs>
		</symbol>



		<symbol  viewBox="0 0 64 64" id="bag">
			<path d="M23.7339 28.125C24.8379 28.125 25.7339 27.229 25.7339 26.125V18.325C25.7339 14.838 28.5709 12 32.0579 12C35.5449 12 38.3829 14.838 38.3829 18.325V26.125C38.3829 27.229 39.2779 28.125 40.3829 28.125C41.4869 28.125 42.3829 27.229 42.3829 26.125V18.325C42.3839 12.632 37.7519 8 32.0579 8C26.3659 8 21.7339 12.632 21.7339 18.325V26.125C21.7339 27.229 22.6299 28.125 23.7339 28.125Z" />
            <path d="M55 23.631H44.384V26.125C44.384 28.331 42.59 30.125 40.384 30.125C38.178 30.125 36.384 28.331 36.384 26.125V23.631H27.735V26.125C27.735 28.331 25.941 30.125 23.735 30.125C21.529 30.125 19.735 28.331 19.735 26.125V23.631H8.99997C8.44797 23.631 8.10697 24.066 8.23797 24.602L15.236 53.099C15.658 54.701 17.344 56 19 56H45C46.658 56 48.342 54.701 48.766 53.099L55.762 24.602C55.893 24.065 55.553 23.631 55 23.631Z" />
            <path d="M28.6001 34.4C28.6001 33.6265 29.2266 33 30.0001 33C30.7736 33 31.4001 33.6265 31.4001 34.4V41.35L31.4001 40C31.4001 39.2265 32.0266 38.6 32.8001 38.6C33.5736 38.6 34.2001 39.2265 34.2001 40V41.6764C34.2127 40.9141 34.8346 39.3 35.6 39.3C36.3731 39.3 36.9999 39.9268 37 40.7C37 40.7 37.0411 41.7411 37.1332 41.8033C37.3572 41.3285 37.8402 40 38.4 40C39.1732 40 39.8 40.6268 39.8 41.4V48.4C39.8 49.9463 38.5463 51.2 37 51.2H32.3198C30.8344 51.2 29.4099 50.6099 28.3599 49.5599L26.15 47.35L23 45.9402C23.0051 44.6033 24.0526 44.2 25.1 44.2C26.0023 44.2 26.8136 44.3407 28.6 45.25L28.6001 34.4Z" fill="white"/>
		</symbol>


		<symbol  viewBox="0 0 64 64" id="support">
			<path fill-rule="evenodd" clip-rule="evenodd" d="M53.4512 35.0765V52.3716C53.4512 55.465 51.0269 58 48.0631 58H15.9701C13.0063 58 10.582 55.465 10.582 52.3716V35.0765H27.2481V42.5873L32.0166 45.7207L36.7851 42.5873V35.0765H53.4512Z" />
            <path fill-rule="evenodd" clip-rule="evenodd" d="M28.9185 35.0764V41.6849L32.0166 43.7205L35.1146 41.6849V35.0764H28.9185Z" />
            <path fill-rule="evenodd" clip-rule="evenodd" d="M12.0734 15.1426H51.9599C53.8423 15.1426 55.3808 16.8507 55.3808 18.9381V29.1913C55.3808 31.2786 53.8423 32.9867 51.9599 32.9867H36.314H27.7194H12.0734C10.191 32.9867 8.65259 31.2786 8.65259 29.1913V18.9381C8.65259 16.8507 10.191 15.1426 12.0734 15.1426Z"/>
            <path fill-rule="evenodd" clip-rule="evenodd" d="M23.712 5.95438H40.3215C41.8647 5.95438 43.1275 7.21717 43.1275 8.76033V13.1377H39.57V10.5509C39.57 9.8535 38.9998 9.281 38.3024 9.281H25.731C25.0337 9.281 24.4635 9.8535 24.4635 10.5509V13.1377H20.906V8.76033C20.906 7.21717 22.1688 5.95438 23.712 5.95438Z" />
		</symbol>


	   <symbol  viewBox="0 0 64 64" id="coprorate">
			<g clip-path="url(#clip0_205_1574)">
        <path d="M60.5264 37.7273C59.8389 37.4426 59.1151 37.2982 58.3752 37.2982C56.7435 37.2982 55.2362 37.9946 54.1896 39.1615L52.9696 38.6562L49.4895 37.2147C49.9834 35.5616 50.2499 33.8113 50.2499 31.9998C50.2499 30.1883 49.9832 28.4381 49.4895 26.7849L52.9696 25.3435L54.1896 24.8381C55.2362 26.0051 56.7435 26.7014 58.3752 26.7014C59.1151 26.7014 59.8389 26.5571 60.5264 26.2722C63.3917 25.0852 64.7575 21.7883 63.5705 18.9227C62.6965 16.8128 60.656 15.4493 58.3722 15.4493C57.6324 15.4493 56.9086 15.5937 56.2211 15.8786C53.9629 16.814 52.6374 19.0598 52.7574 21.3722L51.5303 21.8805L48.0513 23.3215C46.3611 20.208 43.7916 17.6383 40.6781 15.9483L42.1191 12.4694L42.6269 11.2436C42.7253 11.2487 42.8239 11.2517 42.9229 11.2517C45.2068 11.2517 47.2471 9.88836 48.1213 7.77836C49.3081 4.91287 47.9425 1.61587 45.077 0.428874C44.3894 0.144375 43.6658 0 42.9259 0C40.642 0 38.6017 1.36337 37.7275 3.47337C36.7922 5.73161 37.4429 8.25698 39.1629 9.80723L38.6564 11.0301L37.2149 14.5102C35.5618 14.0165 33.8115 13.7498 32 13.7498C30.1885 13.7498 28.4383 14.0165 26.7852 14.5102L25.3437 11.0301L24.8372 9.80723C26.5572 8.25698 27.2079 5.73161 26.2725 3.47324C25.3984 1.36337 23.3578 0 21.0741 0C20.3342 0 19.6104 0.144375 18.9229 0.429249C16.0576 1.61625 14.6918 4.91312 15.8788 7.77874C16.7528 9.88861 18.7933 11.2521 21.0771 11.2521C21.1761 11.2521 21.2747 11.2491 21.3731 11.244L21.8808 12.4697L23.3218 15.9487C20.2083 17.6388 17.6387 20.2083 15.9487 23.3218L12.4697 21.8808L11.2426 21.3726C11.3626 19.0602 10.0371 16.8143 7.77883 15.8788C7.09133 15.5941 6.36758 15.4497 5.62771 15.4497C3.34384 15.4497 1.30347 16.8131 0.429344 18.9231C-0.757529 21.7886 0.608094 25.0856 3.47359 26.2726C4.16109 26.5573 4.88484 26.7017 5.62471 26.7017C7.25646 26.7017 8.7637 26.0053 9.81033 24.8383L11.0303 25.3437L14.5104 26.7852C14.0166 28.4383 13.7501 30.1886 13.7501 32.0001C13.7501 33.8116 14.0167 35.5618 14.5104 37.2149L11.0302 38.6562L9.8102 39.1615C8.76358 37.9946 7.25633 37.2982 5.62458 37.2982C4.88471 37.2982 4.16096 37.4426 3.47346 37.7274C0.608094 38.9144 -0.757654 42.2113 0.429344 45.0769C1.30334 47.1868 3.34384 48.5503 5.62758 48.5503C6.36746 48.5503 7.09121 48.4059 7.77871 48.121C10.037 47.1857 11.3624 44.9398 11.2424 42.6274L12.4696 42.1192L15.9486 40.6782C17.6387 43.7917 20.2082 46.3613 23.3217 48.0513L21.8807 51.5303L21.3729 52.756C21.2746 52.7509 21.1759 52.7479 21.0769 52.7479C18.7931 52.7479 16.7527 54.1113 15.8786 56.2213C14.6917 59.0868 16.0573 62.3838 18.9228 63.5708C19.6103 63.8555 20.3341 63.9999 21.0739 63.9999C23.3578 63.9999 25.3982 62.6365 26.2723 60.5265C27.2077 58.2683 26.5569 55.7429 24.8369 54.1926L25.3434 52.9698L26.7849 49.4897C28.438 49.9834 30.1883 50.25 31.9998 50.25C33.8113 50.25 35.5615 49.9834 37.2146 49.4897L38.6561 52.9698L39.1626 54.1926C37.4426 55.7429 36.7919 58.2683 37.7273 60.5266C38.6013 62.6365 40.6418 64 42.9255 64C43.6654 64 44.3891 63.8556 45.0766 63.5708C47.942 62.3838 49.3078 59.0869 48.1208 56.2213C47.2468 54.1114 45.2063 52.7479 42.9225 52.7479C42.8235 52.7479 42.7249 52.7509 42.6265 52.756L42.1188 51.5303L40.6778 48.0513C43.7913 46.3612 46.3609 43.7917 48.0509 40.6782L51.5299 42.1192L52.757 42.6274C52.637 44.9398 53.9625 47.1857 56.2207 48.1212C56.9082 48.4059 57.632 48.5503 58.3719 48.5503C60.6557 48.5503 62.6961 47.1869 63.5702 45.0769C64.7575 42.2113 63.392 38.9143 60.5264 37.7273ZM32 46.4998C24.0048 46.4998 17.5001 39.995 17.5001 31.9998C17.5001 24.0046 24.0048 17.4998 32 17.4998C39.9953 17.4998 46.5 24.0046 46.5 31.9998C46.5 39.995 39.9951 46.4998 32 46.4998Z"/>
        <path d="M60.5264 37.7273C59.8389 37.4426 59.1151 37.2982 58.3752 37.2982C56.7435 37.2982 55.2362 37.9946 54.1896 39.1615L52.9696 38.6562L49.4895 37.2147C49.9834 35.5616 50.2499 33.8113 50.2499 31.9998C50.2499 30.1883 49.9832 28.4381 49.4895 26.7849L52.9696 25.3435L54.1896 24.8381C55.2362 26.0051 56.7435 26.7014 58.3752 26.7014C59.1151 26.7014 59.8389 26.5571 60.5264 26.2722C63.3917 25.0852 64.7575 21.7883 63.5705 18.9227C62.6965 16.8128 60.656 15.4493 58.3722 15.4493C57.6324 15.4493 56.9086 15.5937 56.2211 15.8786C53.9629 16.814 52.6374 19.0598 52.7574 21.3722L51.5303 21.8805L48.0513 23.3215C46.3611 20.208 43.7916 17.6383 40.6781 15.9483L42.1191 12.4694L42.6269 11.2436C42.7253 11.2487 42.8239 11.2517 42.9229 11.2517C45.2068 11.2517 47.2471 9.88836 48.1213 7.77836C49.3081 4.91287 47.9425 1.61587 45.077 0.428874C44.3894 0.144375 43.6658 0 42.9259 0C40.642 0 38.6017 1.36337 37.7275 3.47337C36.7922 5.73161 37.4429 8.25698 39.1629 9.80723L38.6564 11.0301L37.2149 14.5102C35.5618 14.0165 33.8115 13.7498 32 13.7498C30.1885 13.7498 28.4383 14.0165 26.7852 14.5102L25.3437 11.0301L24.8372 9.80723C26.5572 8.25698 27.2079 5.73161 26.2725 3.47324C25.3984 1.36337 23.3578 0 21.0741 0C20.3342 0 19.6104 0.144375 18.9229 0.429249C16.0576 1.61625 14.6918 4.91312 15.8788 7.77874C16.7528 9.88861 18.7933 11.2521 21.0771 11.2521C21.1761 11.2521 21.2747 11.2491 21.3731 11.244L21.8808 12.4697L23.3218 15.9487C20.2083 17.6388 17.6387 20.2083 15.9487 23.3218L12.4697 21.8808L11.2426 21.3726C11.3626 19.0602 10.0371 16.8143 7.77883 15.8788C7.09133 15.5941 6.36758 15.4497 5.62771 15.4497C3.34384 15.4497 1.30347 16.8131 0.429344 18.9231C-0.757529 21.7886 0.608094 25.0856 3.47359 26.2726C4.16109 26.5573 4.88484 26.7017 5.62471 26.7017C7.25646 26.7017 8.7637 26.0053 9.81033 24.8383L11.0303 25.3437L14.5104 26.7852C14.0166 28.4383 13.7501 30.1886 13.7501 32.0001C13.7501 33.8116 14.0167 35.5618 14.5104 37.2149L11.0302 38.6562L9.8102 39.1615C8.76358 37.9946 7.25633 37.2982 5.62458 37.2982C4.88471 37.2982 4.16096 37.4426 3.47346 37.7274C0.608094 38.9144 -0.757654 42.2113 0.429344 45.0769C1.30334 47.1868 3.34384 48.5503 5.62758 48.5503C6.36746 48.5503 7.09121 48.4059 7.77871 48.121C10.037 47.1857 11.3624 44.9398 11.2424 42.6274L12.4696 42.1192L15.9486 40.6782C17.6387 43.7917 20.2082 46.3613 23.3217 48.0513L21.8807 51.5303L21.3729 52.756C21.2746 52.7509 21.1759 52.7479 21.0769 52.7479C18.7931 52.7479 16.7527 54.1113 15.8786 56.2213C14.6917 59.0868 16.0573 62.3838 18.9228 63.5708C19.6103 63.8555 20.3341 63.9999 21.0739 63.9999C23.3578 63.9999 25.3982 62.6365 26.2723 60.5265C27.2077 58.2683 26.5569 55.7429 24.8369 54.1926L25.3434 52.9698L26.7849 49.4897C28.438 49.9834 30.1883 50.25 31.9998 50.25C33.8113 50.25 35.5615 49.9834 37.2146 49.4897L38.6561 52.9698L39.1626 54.1926C37.4426 55.7429 36.7919 58.2683 37.7273 60.5266C38.6013 62.6365 40.6418 64 42.9255 64C43.6654 64 44.3891 63.8556 45.0766 63.5708C47.942 62.3838 49.3078 59.0869 48.1208 56.2213C47.2468 54.1114 45.2063 52.7479 42.9225 52.7479C42.8235 52.7479 42.7249 52.7509 42.6265 52.756L42.1188 51.5303L40.6778 48.0513C43.7913 46.3612 46.3609 43.7917 48.0509 40.6782L51.5299 42.1192L52.757 42.6274C52.637 44.9398 53.9625 47.1857 56.2207 48.1212C56.9082 48.4059 57.632 48.5503 58.3719 48.5503C60.6557 48.5503 62.6961 47.1869 63.5702 45.0769C64.7575 42.2113 63.392 38.9143 60.5264 37.7273ZM32 46.4998C24.0048 46.4998 17.5001 39.995 17.5001 31.9998C17.5001 24.0046 24.0048 17.4998 32 17.4998C39.9953 17.4998 46.5 24.0046 46.5 31.9998C46.5 39.995 39.9951 46.4998 32 46.4998Z" />
        <path d="M32.0001 21.2498C26.0726 21.2498 21.2501 26.0723 21.2501 31.9998C21.2501 37.9273 26.0726 42.7498 32.0001 42.7498C37.9276 42.7498 42.7501 37.9273 42.7501 31.9998C42.7501 26.0723 37.9276 21.2498 32.0001 21.2498ZM33.8751 36.1248H30.1251V27.8748H33.8751V36.1248Z"/>
        <path d="M32.0001 21.2498C26.0726 21.2498 21.2501 26.0723 21.2501 31.9998C21.2501 37.9273 26.0726 42.7498 32.0001 42.7498C37.9276 42.7498 42.7501 37.9273 42.7501 31.9998C42.7501 26.0723 37.9276 21.2498 32.0001 21.2498ZM33.8751 36.1248H30.1251V27.8748H33.8751V36.1248Z" fill="url(#paint1_linear_205_1574)"/>
        </g>
	   </symbol>




	   <symbol  viewBox="0 0 64 64" id="trust">
			<path d="M42.0059 56H23.0059V62H42.0059V56Z" />
             <path d="M42.0059 56H23.0059V62H42.0059V56Z" />
             <path d="M15.1726 2.45226L1.73755 15.8873L5.27309 19.4228L18.7081 5.9878L15.1726 2.45226Z" />
             <path d="M15.1726 2.45226L1.73755 15.8873L5.27309 19.4228L18.7081 5.9878L15.1726 2.45226Z" />
             <path d="M49.1127 2.32178L45.5771 5.8573L59.0122 19.2924L62.5477 15.7568L49.1127 2.32178Z" />
             <path d="M49.1127 2.32178L45.5771 5.8573L59.0122 19.2924L62.5477 15.7568L49.1127 2.32178Z" />
             <path d="M44.5564 9.7066L41.8651 9.59253C41.089 9.48299 40.2981 9.55529 39.5548 9.80375C38.8115 10.0522 38.1361 10.47 37.5819 11.0242L32.0775 16.5286L26.3239 10.7751C25.8244 10.287 25.2011 9.94445 24.5214 9.78429C23.8416 9.62412 23.131 9.65243 22.4661 9.86615C21.8388 10.0569 21.1715 10.0736 20.5355 9.91457C19.8995 9.75549 19.3186 9.42658 18.8551 8.963L18.0012 8.10912L7.39453 18.7157L9.12253 20.4437L9.00845 23.1349C8.89891 23.911 8.97122 24.7019 9.21966 25.4452C9.46811 26.1885 9.8859 26.8639 10.4401 27.4181L20.0525 37.0305C20.181 35.7687 20.7856 34.6033 21.7432 33.7716L18.7482 30.7767L19.4553 30.0696L22.5836 33.1978C23.027 32.9454 23.5068 32.763 24.0059 32.6572V28.9633L22.2838 27.2411L22.9908 26.534L24.0059 27.5491V22.1992C23.9948 21.3149 24.3086 20.4573 24.8879 19.7891C25.4672 19.1209 26.2716 18.6886 27.1485 18.5742C27.4792 18.5421 27.8128 18.5572 28.1393 18.619L26.9098 17.3895L27.6169 16.6824L29.4131 18.4786C29.7312 17.8622 30.2233 17.3528 30.8283 17.0136C31.4333 16.6744 32.1246 16.5202 32.8165 16.5703C33.6513 16.6678 34.4258 17.0543 35.0057 17.6629C35.5855 18.2715 35.9342 19.0637 35.9913 19.9023C36.5596 19.6322 37.1894 19.5176 37.8165 19.5703C38.7075 19.677 39.5273 20.1108 40.1166 20.7876C40.7059 21.4645 41.0229 22.3361 41.0059 23.2334V26.6572C41.916 26.8473 42.7551 27.2872 43.4292 27.9275C44.1032 28.5678 44.5855 29.3833 44.822 30.2824L47.6105 27.4939L48.3176 28.201L45.0023 31.5163C45.0024 31.53 45.0059 31.5428 45.0059 31.5566V34.8767C45.9043 34.7827 46.7437 34.3845 47.3848 33.7482L54.225 26.9081C54.7131 26.4085 55.0556 25.7853 55.2158 25.1055C55.3759 24.4257 55.3476 23.7151 55.1339 23.0502C54.9431 22.423 54.9264 21.7557 55.0855 21.1196C55.2445 20.4836 55.5735 19.9027 56.0371 19.4391L56.8909 18.5853L46.2844 7.97864L44.5564 9.7066Z" fill="black"/>
             <path d="M44.5564 9.7066L41.8651 9.59253C41.089 9.48299 40.2981 9.55529 39.5548 9.80375C38.8115 10.0522 38.1361 10.47 37.5819 11.0242L32.0775 16.5286L26.3239 10.7751C25.8244 10.287 25.2011 9.94445 24.5214 9.78429C23.8416 9.62412 23.131 9.65243 22.4661 9.86615C21.8388 10.0569 21.1715 10.0736 20.5355 9.91457C19.8995 9.75549 19.3186 9.42658 18.8551 8.963L18.0012 8.10912L7.39453 18.7157L9.12253 20.4437L9.00845 23.1349C8.89891 23.911 8.97122 24.7019 9.21966 25.4452C9.46811 26.1885 9.8859 26.8639 10.4401 27.4181L20.0525 37.0305C20.181 35.7687 20.7856 34.6033 21.7432 33.7716L18.7482 30.7767L19.4553 30.0696L22.5836 33.1978C23.027 32.9454 23.5068 32.763 24.0059 32.6572V28.9633L22.2838 27.2411L22.9908 26.534L24.0059 27.5491V22.1992C23.9948 21.3149 24.3086 20.4573 24.8879 19.7891C25.4672 19.1209 26.2716 18.6886 27.1485 18.5742C27.4792 18.5421 27.8128 18.5572 28.1393 18.619L26.9098 17.3895L27.6169 16.6824L29.4131 18.4786C29.7312 17.8622 30.2233 17.3528 30.8283 17.0136C31.4333 16.6744 32.1246 16.5202 32.8165 16.5703C33.6513 16.6678 34.4258 17.0543 35.0057 17.6629C35.5855 18.2715 35.9342 19.0637 35.9913 19.9023C36.5596 19.6322 37.1894 19.5176 37.8165 19.5703C38.7075 19.677 39.5273 20.1108 40.1166 20.7876C40.7059 21.4645 41.0229 22.3361 41.0059 23.2334V26.6572C41.916 26.8473 42.7551 27.2872 43.4292 27.9275C44.1032 28.5678 44.5855 29.3833 44.822 30.2824L47.6105 27.4939L48.3176 28.201L45.0023 31.5163C45.0024 31.53 45.0059 31.5428 45.0059 31.5566V34.8767C45.9043 34.7827 46.7437 34.3845 47.3848 33.7482L54.225 26.9081C54.7131 26.4085 55.0556 25.7853 55.2158 25.1055C55.3759 24.4257 55.3476 23.7151 55.1339 23.0502C54.9431 22.423 54.9264 21.7557 55.0855 21.1196C55.2445 20.4836 55.5735 19.9027 56.0371 19.4391L56.8909 18.5853L46.2844 7.97864L44.5564 9.7066Z" fill="url(#paint3_linear_205_1581)"/>
             <path d="M29.8804 21.6895C29.8044 21.0399 29.476 20.4462 28.966 20.0367C28.4559 19.6272 27.8053 19.4347 27.1546 19.5009C26.5234 19.588 25.9463 19.904 25.5329 20.3888C25.1194 20.8736 24.8986 21.4935 24.9124 22.1305V33.4879C23.8515 33.4879 22.8341 33.9093 22.0839 34.6594C21.3338 35.4096 20.9124 36.427 20.9124 37.4879V47.1613C20.9205 47.8597 21.1189 48.5426 21.4864 49.1365C21.8538 49.7304 22.3763 50.2129 22.9976 50.5319C23.576 50.8406 24.0597 51.3006 24.3969 51.8628C24.7342 52.425 24.9123 53.0683 24.9124 53.7239V54.9315H39.9124V52.4879L41.896 50.6655C42.5222 50.1942 43.0303 49.5838 43.3803 48.8825C43.7302 48.1812 43.9123 47.4082 43.9124 46.6245V31.4879C43.9124 30.427 43.4909 29.4096 42.7408 28.6594C41.9906 27.9093 40.9732 27.4879 39.9124 27.4879V23.1653C39.9293 22.518 39.7062 21.8874 39.286 21.3949C38.8657 20.9024 38.2781 20.5828 37.6362 20.4977C37.0063 20.442 36.3787 20.6279 35.8807 21.0177C35.3826 21.4074 35.0513 21.9719 34.9539 22.5967H35.4124V38.0401H34.4124V22.5967H34.9124V20.1653C34.9293 19.518 34.7062 18.8874 34.286 18.3949C33.8657 17.9024 33.2781 17.5828 32.6362 17.4977C32.2904 17.4666 31.942 17.508 31.613 17.619C31.2841 17.73 30.9819 17.9084 30.7256 18.1426C30.4694 18.3769 30.2647 18.6619 30.1247 18.9796C29.9847 19.2973 29.9124 19.6407 29.9124 19.9879V21.6895H30.4124V37.1329H29.4124V21.6895H29.8804ZM25.3115 42.0401H24.3115V34.0401H25.3115V42.0401ZM39.4124 27.7983H40.4124V38.2417H39.4124V27.7983Z" fill="black"/>
             <path d="M29.8804 21.6895C29.8044 21.0399 29.476 20.4462 28.966 20.0367C28.4559 19.6272 27.8053 19.4347 27.1546 19.5009C26.5234 19.588 25.9463 19.904 25.5329 20.3888C25.1194 20.8736 24.8986 21.4935 24.9124 22.1305V33.4879C23.8515 33.4879 22.8341 33.9093 22.0839 34.6594C21.3338 35.4096 20.9124 36.427 20.9124 37.4879V47.1613C20.9205 47.8597 21.1189 48.5426 21.4864 49.1365C21.8538 49.7304 22.3763 50.2129 22.9976 50.5319C23.576 50.8406 24.0597 51.3006 24.3969 51.8628C24.7342 52.425 24.9123 53.0683 24.9124 53.7239V54.9315H39.9124V52.4879L41.896 50.6655C42.5222 50.1942 43.0303 49.5838 43.3803 48.8825C43.7302 48.1812 43.9123 47.4082 43.9124 46.6245V31.4879C43.9124 30.427 43.4909 29.4096 42.7408 28.6594C41.9906 27.9093 40.9732 27.4879 39.9124 27.4879V23.1653C39.9293 22.518 39.7062 21.8874 39.286 21.3949C38.8657 20.9024 38.2781 20.5828 37.6362 20.4977C37.0063 20.442 36.3787 20.6279 35.8807 21.0177C35.3826 21.4074 35.0513 21.9719 34.9539 22.5967H35.4124V38.0401H34.4124V22.5967H34.9124V20.1653C34.9293 19.518 34.7062 18.8874 34.286 18.3949C33.8657 17.9024 33.2781 17.5828 32.6362 17.4977C32.2904 17.4666 31.942 17.508 31.613 17.619C31.2841 17.73 30.9819 17.9084 30.7256 18.1426C30.4694 18.3769 30.2647 18.6619 30.1247 18.9796C29.9847 19.2973 29.9124 19.6407 29.9124 19.9879V21.6895H30.4124V37.1329H29.4124V21.6895H29.8804ZM25.3115 42.0401H24.3115V34.0401H25.3115V42.0401ZM39.4124 27.7983H40.4124V38.2417H39.4124V27.7983Z" fill="url(#paint4_linear_205_1581)"/>

		</symbol>





		<symbol   viewBox="0 0 64 64" id="protection">
			<path d="M41.2317 37.6966C43.5839 37.6966 45.9096 38.285 47.9577 39.3979C48.3296 39.5984 48.6709 39.8373 49.0194 40.0673C52.3807 33.4874 54.1545 26.5283 54.1545 19.7394C54.1545 19.3578 54.1545 18.964 54.1423 18.5702C54.1177 18.0163 53.7238 17.5363 53.1699 17.4133C45.7361 15.7886 39.0038 11.764 33.7115 5.78248L32.9238 4.88396C32.6899 4.61323 32.3577 4.46554 32.0007 4.46554C31.6192 4.41634 31.3238 4.60091 31.0899 4.8594L29.8838 6.18865C24.8623 11.7148 18.5361 15.5301 11.5946 17.2286L10.7946 17.4255C10.253 17.5486 9.8715 18.0286 9.85918 18.5824C9.41612 35.887 19.6315 48.3302 24.0377 52.884C25.2306 54.1088 26.5606 55.3262 27.8253 56.3324C27.3509 54.9017 27.0779 53.3962 27.0779 51.8505C27.0779 44.0458 33.427 37.6966 41.2317 37.6966Z" />
            <path d="M46.7822 41.5609C45.0837 40.6379 43.1637 40.1578 41.2314 40.1578C34.7822 40.1578 29.5391 45.4009 29.5391 51.8501C29.5391 54.0286 30.1299 56.1578 31.2622 57.9794C33.416 61.4625 37.133 63.5425 41.2314 63.5425C47.6683 63.5425 52.9237 58.2994 52.9237 51.8501C52.9237 47.5425 50.5729 43.604 46.7822 41.5609ZM47.2196 50.2934L38.0747 57.4099L34.9527 52.5265C34.5862 51.9538 34.7538 51.193 35.3265 50.827C35.8999 50.4604 36.6613 50.6293 37.0261 51.2008L38.6937 53.809L45.7076 48.351C46.243 47.9334 47.0171 48.0289 47.4347 48.5662C47.8524 49.1028 47.7556 49.8763 47.2196 50.2934Z" />
		</symbol>




		<symbol   viewBox="0 0 64 64" id="court">
			<path d="M40.352 20.3897C41.084 21.1217 42.27 21.1237 43.002 20.3897L45.61 17.7817C46.341 17.0497 46.339 15.8637 45.61 15.1307L39.027 8.5497C38.297 7.8177 37.111 7.8177 36.379 8.5497L33.77 11.1577C33.04 11.8897 33.04 13.0757 33.77 13.8057L40.352 20.3897Z"/>
               <path d="M24.766 36.2677C25.497 36.9967 26.683 36.9967 27.414 36.2677L30.023 33.6577C30.755 32.9277 30.755 31.7407 30.023 31.0087L23.44 24.4257C22.709 23.6957 21.523 23.6937 20.791 24.4257L18.183 27.0337C17.451 27.7657 17.453 28.9517 18.183 29.6837L24.766 36.2677Z"/>
               <path d="M54.648 36.8937L52.001 34.2437C51.267 33.5137 50.084 33.5137 49.353 34.2437L48.192 35.4037L36.987 24.1967L39.414 21.7687L32.681 15.0377L30.253 17.4657L27.161 20.5557L24.787 22.9297L31.519 29.6627L33.896 27.2897L45.099 38.4947L44.051 39.5437C43.319 40.2727 43.317 41.4597 44.051 42.1917L46.698 44.8397C47.432 45.5737 48.617 45.5737 49.348 44.8397L54.647 39.5427C55.38 38.8097 55.38 37.6257 54.648 36.8937Z" />
               <path d="M35.077 44.9427C35.077 43.7437 34.105 42.7697 32.904 42.7697H15.936C14.736 42.7697 13.763 43.7437 13.763 44.9427V48.4697H9V55.8587H39.558V48.4697H35.077V44.9427Z"/>
		</symbol>




</svg>